<svg width="288" height="286" viewBox="0 0 288 286" fill="none" xmlns="http://www.w3.org/2000/svg">
<path d="M144.227 76.4549V12.0273" stroke="#2E2E2E" stroke-width="3.84331" stroke-linecap="square" stroke-linejoin="round"/>
<path d="M139.844 94.8069V39.062" stroke="#2E2E2E" stroke-width="2.56221" stroke-linecap="square" stroke-linejoin="round"/>
<path d="M139.844 94.8069V39.062" stroke="#2E2E2E" stroke-width="2.56221" stroke-linecap="square" stroke-linejoin="round"/>
<path d="M133.976 106.632V59.333" stroke="#2E2E2E" stroke-width="1.60138" stroke-linecap="square" stroke-linejoin="round"/>
<path d="M94.8591 106.632V79.6038" stroke="#2E2E2E" stroke-width="1.60138" stroke-linecap="square" stroke-linejoin="round"/>
<path d="M90.9475 94.807V65.0933" stroke="#2E2E2E" stroke-width="2.56221" stroke-linecap="square" stroke-linejoin="round"/>
<path d="M197.542 94.807V65.0933" stroke="#2E2E2E" stroke-width="2.56221" stroke-linecap="square" stroke-linejoin="round"/>
<path d="M81.1682 77.9147V44.1299" stroke="#2E2E2E" stroke-width="3.20276" stroke-linecap="square" stroke-linejoin="round"/>
<path d="M7.82349 280.623V77.9146" stroke="#2E2E2E" stroke-width="3.20276" stroke-linecap="square" stroke-linejoin="round"/>
<path d="M8.85132 76.455L143.059 5.27051" stroke="#2E2E2E" stroke-width="3.20276" stroke-linecap="square" stroke-linejoin="round"/>
<path d="M280.142 76.455L145.934 5.27051" stroke="#2E2E2E" stroke-width="3.20276" stroke-linecap="square" stroke-linejoin="round"/>
<path d="M280.666 280.623V77.9146" stroke="#2E2E2E" stroke-width="3.20276" stroke-linecap="square" stroke-linejoin="round"/>
<path d="M8.58154 82.6072H279.872" stroke="#2E2E2E" stroke-width="3.20276" stroke-linecap="square" stroke-linejoin="round"/>
<path d="M143.059 77.9145L81.6572 39.062" stroke="#2E2E2E" stroke-width="1.2811" stroke-linecap="square" stroke-linejoin="round"/>
<path d="M137.888 94.807L92.9033 62.7114" stroke="#2E2E2E" stroke-width="1.2811" stroke-linecap="square" stroke-linejoin="round"/>
<path d="M133.976 106.632L93.8813 77.9146" stroke="#2E2E2E" stroke-width="1.2811" stroke-linecap="square" stroke-linejoin="round"/>
<path d="M173.583 106.632V79.6038" stroke="#2E2E2E" stroke-width="1.60138" stroke-linecap="square" stroke-linejoin="round"/>
<path d="M134.465 106.632L174.56 77.9146" stroke="#2E2E2E" stroke-width="1.2811" stroke-linecap="square" stroke-linejoin="round"/>
<path d="M142.778 94.807L195.586 62.7114" stroke="#2E2E2E" stroke-width="1.2811" stroke-linecap="square" stroke-linejoin="round"/>
<path d="M207.603 77.9147V44.1299" stroke="#2E2E2E" stroke-width="3.20276" stroke-linecap="square" stroke-linejoin="round"/>
<path d="M145.711 77.9145L207.114 39.062" stroke="#2E2E2E" stroke-width="1.2811" stroke-linecap="square" stroke-linejoin="round"/>
<path d="M276.265 284.312H0.978027" stroke="#2E2E2E" stroke-width="1.2811" stroke-linecap="round" stroke-linejoin="round"/>
<path d="M287.022 284.312H276.265" stroke="#2E2E2E" stroke-width="1.2811" stroke-linecap="round" stroke-linejoin="round"/>
<path d="M8.80151 84.6714L27.3274 108.321" stroke="#2E2E2E" stroke-width="1.2811" stroke-linecap="round" stroke-linejoin="round"/>
<path d="M279.199 81.293L260.618 108.321" stroke="#2E2E2E" stroke-width="1.2811" stroke-linecap="round" stroke-linejoin="round"/>
<path d="M17.6028 280.623V98.1853" stroke="#2E2E2E" stroke-width="1.2811" stroke-linecap="round" stroke-linejoin="round"/>
<path d="M27.3274 275.172V108.321" stroke="#2E2E2E" stroke-width="1.2811" stroke-linecap="round" stroke-linejoin="round"/>
<path d="M260.618 275.172V108.321" stroke="#2E2E2E" stroke-width="1.2811" stroke-linecap="round" stroke-linejoin="round"/>
<path d="M269.908 280.623V98.1853" stroke="#2E2E2E" stroke-width="1.2811" stroke-linecap="round" stroke-linejoin="round"/>
<path fill-rule="evenodd" clip-rule="evenodd" d="M27.3821 275.172H260.618L281.644 285.691L7.82349 284.002L27.3821 275.172ZM27.6334 278.551L22.8357 280.716L267.689 282.226L260.34 278.549L27.6334 278.551Z" fill="#2E2E2E"/>
<path d="M27.3274 108.321H260.618" stroke="#2E2E2E" stroke-width="1.2811" stroke-linecap="round" stroke-linejoin="round"/>
<path d="M18.0918 98.2986H267.69" stroke="#2E2E2E" stroke-width="1.92166" stroke-linecap="round" stroke-linejoin="round"/>
<path d="M18.0918 96.4961L144.734 34.822L268.93 98.1854" stroke="#2E2E2E" stroke-width="2.24193" stroke-linecap="round" stroke-linejoin="round"/>
<path d="M27.3821 108.321L133.976 57.6436L260.129 108.321" stroke="#2E2E2E" stroke-width="1.2811" stroke-linecap="round" stroke-linejoin="round"/>
<path d="M105.616 109.627V275.172" stroke="#2E2E2E" stroke-width="1.2811" stroke-linecap="round" stroke-linejoin="round"/>
<path d="M81.1682 82.9822V280.623" stroke="#2E2E2E" stroke-width="3.20276" stroke-linecap="square" stroke-linejoin="round"/>
<path d="M207.321 83.8269V281.468" stroke="#2E2E2E" stroke-width="3.20276" stroke-linecap="square" stroke-linejoin="round"/>
<path d="M182.873 109.627V275.172" stroke="#2E2E2E" stroke-width="1.2811" stroke-linecap="round" stroke-linejoin="round"/>
<path d="M9.7793 142.107H79.2122" stroke="#2E2E2E" stroke-width="1.2811" stroke-linecap="square" stroke-linejoin="round"/>
<path d="M9.7793 245.151H79.2122" stroke="#2E2E2E" stroke-width="1.2811" stroke-linecap="square" stroke-linejoin="round"/>
<path d="M209.277 142.107H278.71" stroke="#2E2E2E" stroke-width="1.2811" stroke-linecap="square" stroke-linejoin="round"/>
<path d="M209.277 245.151H278.71" stroke="#2E2E2E" stroke-width="1.2811" stroke-linecap="square" stroke-linejoin="round"/>
</svg>
