<svg width="298" height="222" viewBox="0 0 298 222" fill="none" xmlns="http://www.w3.org/2000/svg">
<path d="M198.849 76.5034L198.895 62.8883C198.895 62.8883 208.06 54.917 210.752 50.0598C212.772 46.4151 212.562 36.3214 212.562 36.3214V16.3129H220.133V3.08643H165.931V15.8023H172.342V36.2519C172.342 36.2519 171.662 45.6917 174.715 49.9226C178.021 54.5021 186.749 62.7063 186.749 62.7063V76.5528" stroke="#2E2E2E" stroke-width="2.80001" stroke-linecap="round" stroke-linejoin="round"/>
<path fill-rule="evenodd" clip-rule="evenodd" d="M271.452 122.83C271.108 121.857 270.546 121.018 269.831 120.405C269.115 119.793 268.273 119.43 267.397 119.358H258.127C257.699 119.333 257.274 119.446 256.894 119.684C256.514 119.922 256.194 120.278 255.966 120.714C255.757 121.162 255.639 121.662 255.62 122.175C255.601 122.688 255.681 123.199 255.856 123.668L270.438 168.485C270.783 169.458 271.345 170.297 272.06 170.91C272.776 171.523 273.619 171.885 274.495 171.957H283.765C284.193 171.983 284.618 171.871 284.999 171.633C285.379 171.395 285.7 171.039 285.928 170.603C286.136 170.155 286.255 169.654 286.274 169.142C286.293 168.629 286.211 168.117 286.037 167.649L271.452 122.83ZM270.565 123.25C270.298 122.485 269.861 121.825 269.301 121.341C268.742 120.857 268.083 120.568 267.397 120.508H258.127C256.871 120.508 256.25 121.741 256.743 123.25L271.334 168.066C271.601 168.83 272.039 169.491 272.598 169.975C273.158 170.459 273.817 170.747 274.504 170.808H283.774C285.029 170.808 285.65 169.574 285.157 168.066L270.565 123.25Z" fill="#2E2E2E"/>
<path fill-rule="evenodd" clip-rule="evenodd" d="M272.84 122.63C272.359 121.261 271.574 120.079 270.571 119.214C269.568 118.349 268.386 117.834 267.156 117.728H256.87C256.356 117.691 255.844 117.819 255.385 118.098C254.926 118.377 254.536 118.797 254.256 119.317C254.003 119.881 253.863 120.509 253.847 121.149C253.831 121.79 253.94 122.426 254.163 123.008L269.063 168.789C269.544 170.158 270.329 171.34 271.332 172.205C272.335 173.07 273.517 173.584 274.747 173.691H285.032C285.545 173.728 286.058 173.601 286.517 173.322C286.976 173.043 287.366 172.622 287.646 172.102C287.899 171.538 288.039 170.911 288.055 170.27C288.071 169.629 287.963 168.993 287.74 168.411L272.84 122.63ZM272.44 122.818C271.995 121.543 271.266 120.441 270.333 119.634C269.401 118.827 268.301 118.346 267.156 118.245H256.87C254.775 118.245 253.741 120.295 254.565 122.818L269.46 168.601C269.906 169.876 270.635 170.978 271.567 171.785C272.5 172.592 273.6 173.073 274.745 173.174H285.029C287.125 173.174 288.159 171.124 287.334 168.601L272.44 122.818Z" fill="#2E2E2E"/>
<path d="M278.031 184.522C281.957 209.139 261.111 221.605 233.795 212.304C216.513 206.42 194.306 176.52 179.43 170.813C146.393 158.128 127.237 196.599 129.642 217.214" stroke="#2E2E2E" stroke-width="3.85002" stroke-linecap="round" stroke-linejoin="round"/>
<path d="M265.054 90.0352H239.594" stroke="#2E2E2E" stroke-width="1.40001" stroke-linecap="round" stroke-linejoin="round"/>
<path d="M215.563 90.0352H201.791" stroke="#2E2E2E" stroke-width="1.40001" stroke-linecap="round" stroke-linejoin="round"/>
<path fill-rule="evenodd" clip-rule="evenodd" d="M229.582 83.8562H233.141C233.64 83.8565 234.12 84.0929 234.476 84.5145C234.832 84.9362 235.037 85.5095 235.047 86.1112C235.047 86.1112 235.881 141.878 234.701 156.417C234.137 163.37 227.627 174.403 227.627 174.403C227.384 174.809 227.038 175.107 226.642 175.254C226.245 175.401 225.82 175.387 225.43 175.216C225.041 175.046 224.708 174.726 224.482 174.307C224.257 173.888 224.151 173.392 224.181 172.893C224.181 172.893 225.077 158.152 224.606 152.445C224.204 147.574 221.421 138.983 221.421 138.983C221.337 138.722 221.294 138.445 221.293 138.165L221.11 93.0044C221.11 92.955 221.11 92.9057 221.11 92.8502C221.175 91.7961 221.324 90.7522 221.556 89.7329C221.821 88.4651 222.329 87.2898 223.039 86.301C224 85.1636 225.221 84.3973 226.545 84.0999C227.544 83.8558 228.565 83.7738 229.582 83.8562ZM223.014 92.9905C223.085 91.1664 223.572 89.4013 224.423 87.8897C226.123 85.741 229.511 86.1513 229.511 86.1513H233.141C233.141 86.1513 233.98 141.708 232.803 156.192C232.271 162.727 226.08 173.057 226.08 173.057C226.08 173.057 226.977 158.034 226.5 152.215C226.08 147.125 223.198 138.152 223.198 138.152L223.014 92.9905Z" fill="#2E2E2E"/>
<path fill-rule="evenodd" clip-rule="evenodd" d="M228.19 89.9241C227.482 89.9245 226.802 90.2638 226.301 90.8674C225.8 91.471 225.519 92.2895 225.519 93.1431C225.519 93.9966 225.801 94.815 226.302 95.4185C226.803 96.022 227.482 96.3614 228.19 96.3622C228.899 96.3618 229.578 96.0225 230.079 95.4189C230.58 94.8153 230.862 93.9968 230.862 93.1431C230.862 92.2895 230.58 91.471 230.079 90.8674C229.578 90.2638 228.899 89.9245 228.19 89.9241ZM228.19 91.0717C228.646 91.0717 229.084 91.2899 229.406 91.6784C229.728 92.0669 229.91 92.5937 229.91 93.1431C229.909 93.6924 229.728 94.2191 229.406 94.6075C229.083 94.9959 228.646 95.2142 228.19 95.2146C227.734 95.2142 227.297 94.9959 226.975 94.6075C226.653 94.2191 226.471 93.6924 226.471 93.1431C226.471 92.5939 226.653 92.0672 226.975 91.6788C227.297 91.2904 227.734 91.0721 228.19 91.0717Z" fill="#2E2E2E"/>
<path d="M214.567 112.462L182.662 112.592L178.588 104.937L167.322 104.846V95.8362L178.193 95.8794L182.455 88.4973H202.638L219.878 67.7161L262.824 67.8703L262.943 88.4187L274.921 88.2073V110.616L292.055 161.1C293.488 164.396 294.412 167.979 294.782 171.673C295.116 180.109 289.259 180.265 289.259 180.265L259.367 180.228C259.367 180.228 254.444 180.348 254.807 173.615C255.077 168.621 260.658 165.351 260.658 165.351L253.266 142.062L245.082 142.188L245.136 130.669L239.527 120.207" stroke="#2E2E2E" stroke-width="3.50001" stroke-linecap="round" stroke-linejoin="round"/>
<path d="M165.936 14.1611H218.551" stroke="#2E2E2E" stroke-width="0.700003" stroke-linecap="round" stroke-linejoin="round"/>
<path fill-rule="evenodd" clip-rule="evenodd" d="M155.042 94.22C156.437 94.2208 157.776 94.8891 158.762 96.0781C159.749 97.2671 160.304 98.8795 160.305 100.561C160.304 102.242 159.749 103.855 158.762 105.044C157.776 106.233 156.437 106.901 155.042 106.902C153.646 106.901 152.308 106.233 151.321 105.044C150.334 103.855 149.779 102.243 149.779 100.561C149.78 98.8795 150.334 97.2671 151.321 96.0781C152.308 94.8891 153.646 94.2208 155.042 94.22ZM155.042 97.6642C155.679 97.6642 156.291 97.9694 156.742 98.5127C157.193 99.0559 157.446 99.7927 157.446 100.561C157.446 101.329 157.192 102.065 156.741 102.608C156.291 103.151 155.679 103.456 155.042 103.456C154.405 103.456 153.794 103.151 153.343 102.608C152.893 102.065 152.639 101.329 152.639 100.561C152.639 99.7929 152.892 99.0564 153.343 98.5132C153.793 97.97 154.404 97.6646 155.042 97.6642Z" fill="#2E2E2E"/>
<path fill-rule="evenodd" clip-rule="evenodd" d="M136.3 94.22C137.696 94.2208 139.034 94.8891 140.021 96.0781C141.007 97.2671 141.562 98.8795 141.563 100.561C141.561 102.241 141.005 103.852 140.019 105.039C139.032 106.227 137.695 106.894 136.3 106.894C134.905 106.893 133.566 106.225 132.58 105.036C131.593 103.847 131.038 102.235 131.037 100.553C131.04 98.8731 131.595 97.2627 132.582 96.0754C133.568 94.888 134.906 94.2208 136.3 94.22ZM136.3 97.6642C136.937 97.6646 137.549 97.97 137.999 98.5132C138.45 99.0564 138.703 99.7929 138.703 100.561C138.703 101.329 138.449 102.065 137.999 102.608C137.548 103.151 136.937 103.456 136.3 103.456C135.663 103.456 135.051 103.151 134.601 102.608C134.15 102.065 133.896 101.329 133.896 100.561C133.896 99.7927 134.149 99.0559 134.6 98.5127C135.051 97.9694 135.662 97.6642 136.3 97.6642Z" fill="#2E2E2E"/>
<path fill-rule="evenodd" clip-rule="evenodd" d="M136.3 118.465C137.696 118.466 139.034 119.134 140.021 120.323C141.007 121.512 141.562 123.125 141.563 124.806C141.562 126.488 141.007 128.1 140.021 129.289C139.034 130.478 137.696 131.146 136.3 131.147C134.905 131.146 133.566 130.478 132.58 129.289C131.593 128.1 131.038 126.488 131.037 124.806C131.038 123.125 131.593 121.512 132.58 120.323C133.566 119.134 134.905 118.466 136.3 118.465ZM136.3 121.91C136.937 121.91 137.549 122.215 137.999 122.759C138.45 123.302 138.703 124.038 138.703 124.806C138.703 125.574 138.45 126.311 137.999 126.854C137.549 127.397 136.937 127.703 136.3 127.703C135.663 127.703 135.051 127.397 134.6 126.854C134.15 126.311 133.896 125.574 133.896 124.806C133.897 124.039 134.151 123.304 134.602 122.761C135.053 122.219 135.663 121.915 136.3 121.914V121.91Z" fill="#2E2E2E"/>
<path fill-rule="evenodd" clip-rule="evenodd" d="M136.3 70.2102C137.696 70.211 139.034 70.8794 140.021 72.0684C141.007 73.2573 141.562 74.8697 141.563 76.5512C141.562 78.2327 141.007 79.845 140.021 81.034C139.034 82.223 137.696 82.8913 136.3 82.8921C134.905 82.8913 133.566 82.223 132.58 81.034C131.593 79.845 131.038 78.2327 131.037 76.5512C131.038 74.8697 131.593 73.2573 132.58 72.0684C133.566 70.8794 134.905 70.211 136.3 70.2102ZM136.3 73.6545C136.937 73.6553 137.548 73.9608 137.999 74.5039C138.449 75.047 138.703 75.7833 138.703 76.5512C138.703 77.319 138.449 78.0554 137.999 78.5985C137.548 79.1416 136.937 79.4471 136.3 79.4479C135.663 79.4475 135.051 79.1421 134.6 78.599C134.15 78.0559 133.896 77.3193 133.896 76.5512C133.895 76.1703 133.957 75.7931 134.078 75.441C134.198 75.0889 134.375 74.769 134.599 74.4994C134.822 74.2298 135.087 74.0158 135.379 73.8698C135.671 73.7238 135.984 73.6485 136.3 73.6483V73.6545Z" fill="#2E2E2E"/>
<path fill-rule="evenodd" clip-rule="evenodd" d="M117.49 94.22C118.885 94.2208 120.223 94.8891 121.21 96.0781C122.197 97.2671 122.752 98.8795 122.752 100.561C122.752 102.243 122.197 103.855 121.211 105.044C120.224 106.233 118.885 106.901 117.49 106.902C116.094 106.901 114.756 106.233 113.769 105.044C112.782 103.855 112.227 102.242 112.227 100.561C112.227 98.8795 112.782 97.2671 113.769 96.0781C114.756 94.8891 116.094 94.2208 117.49 94.22ZM117.49 97.6642C118.127 97.6646 118.738 97.97 119.189 98.5132C119.639 99.0564 119.892 99.7929 119.892 100.561C119.892 101.329 119.639 102.065 119.188 102.608C118.738 103.151 118.127 103.456 117.49 103.456C116.852 103.456 116.241 103.151 115.79 102.608C115.339 102.065 115.086 101.329 115.085 100.561C115.085 99.7927 115.339 99.0559 115.79 98.5127C116.24 97.9694 116.852 97.6642 117.49 97.6642Z" fill="#2E2E2E"/>
<path fill-rule="evenodd" clip-rule="evenodd" d="M117.49 118.465C118.885 118.466 120.223 119.134 121.21 120.323C122.197 121.512 122.752 123.125 122.752 124.806C122.752 126.488 122.197 128.1 121.21 129.289C120.223 130.478 118.885 131.146 117.49 131.147C116.094 131.146 114.756 130.478 113.769 129.289C112.782 128.1 112.227 126.488 112.227 124.806C112.227 123.125 112.782 121.512 113.769 120.323C114.756 119.134 116.094 118.466 117.49 118.465ZM117.49 121.91C118.127 121.91 118.738 122.215 119.189 122.759C119.639 123.302 119.892 124.038 119.892 124.806C119.892 125.574 119.639 126.311 119.189 126.854C118.738 127.397 118.127 127.703 117.49 127.703C116.852 127.703 116.241 127.397 115.79 126.854C115.339 126.311 115.086 125.574 115.085 124.806C115.087 124.039 115.341 123.304 115.791 122.761C116.242 122.219 116.853 121.915 117.49 121.914V121.91Z" fill="#2E2E2E"/>
<path fill-rule="evenodd" clip-rule="evenodd" d="M117.49 142.75C118.885 142.75 120.223 143.419 121.21 144.608C122.197 145.797 122.752 147.409 122.752 149.09C122.752 150.772 122.197 152.384 121.21 153.573C120.223 154.762 118.885 155.431 117.49 155.431C116.094 155.431 114.756 154.762 113.769 153.573C112.782 152.384 112.227 150.772 112.227 149.09C112.227 147.409 112.782 145.797 113.769 144.608C114.756 143.419 116.094 142.75 117.49 142.75ZM117.49 146.194C118.127 146.194 118.738 146.5 119.189 147.043C119.639 147.586 119.892 148.322 119.892 149.09C119.892 149.858 119.639 150.595 119.189 151.138C118.738 151.681 118.127 151.987 117.49 151.987C116.852 151.987 116.241 151.681 115.79 151.138C115.339 150.595 115.086 149.859 115.085 149.09C115.086 148.323 115.34 147.586 115.79 147.044C116.241 146.501 116.852 146.194 117.49 146.194Z" fill="#2E2E2E"/>
<path fill-rule="evenodd" clip-rule="evenodd" d="M117.49 70.2102C118.885 70.211 120.223 70.8794 121.21 72.0684C122.197 73.2573 122.752 74.8697 122.752 76.5512C122.752 78.2327 122.197 79.845 121.21 81.034C120.223 82.223 118.885 82.8913 117.49 82.8921C116.094 82.8913 114.756 82.223 113.769 81.034C112.782 79.845 112.227 78.2327 112.227 76.5512C112.227 74.8697 112.782 73.2573 113.769 72.0684C114.756 70.8794 116.094 70.211 117.49 70.2102ZM117.49 73.6545C118.127 73.6553 118.738 73.9608 119.188 74.5039C119.639 75.047 119.892 75.7833 119.892 76.5512C119.892 77.319 119.639 78.0554 119.188 78.5985C118.738 79.1416 118.127 79.4471 117.49 79.4479C116.852 79.4475 116.241 79.1421 115.79 78.599C115.339 78.0559 115.086 77.3193 115.085 76.5512C115.085 76.1703 115.147 75.7931 115.267 75.441C115.388 75.0889 115.565 74.769 115.788 74.4994C116.011 74.2298 116.277 74.0158 116.569 73.8698C116.86 73.7238 117.173 73.6485 117.49 73.6483V73.6545Z" fill="#2E2E2E"/>
<path fill-rule="evenodd" clip-rule="evenodd" d="M117.49 47.0645C118.885 47.0653 120.223 47.7336 121.21 48.9226C122.197 50.1116 122.752 51.7239 122.752 53.4054C122.752 55.0869 122.197 56.6993 121.21 57.8883C120.223 59.0772 118.885 59.7456 117.49 59.7464C116.094 59.7456 114.756 59.0772 113.769 57.8883C112.782 56.6993 112.227 55.0869 112.227 53.4054C112.227 51.7239 112.782 50.1116 113.769 48.9226C114.756 47.7336 116.094 47.0653 117.49 47.0645ZM117.49 50.5087C118.127 50.5091 118.738 50.8145 119.189 51.3577C119.639 51.9009 119.892 52.6374 119.892 53.4054C119.892 54.1733 119.639 54.9096 119.188 55.4527C118.738 55.9958 118.127 56.3013 117.49 56.3021C116.852 56.3017 116.241 55.9964 115.79 55.4532C115.339 54.9101 115.086 54.1735 115.085 53.4054C115.085 52.6372 115.339 51.9004 115.79 51.3571C116.24 50.8139 116.852 50.5087 117.49 50.5087Z" fill="#2E2E2E"/>
<path d="M73.4084 153.439C73.1178 156.678 85.9309 143.387 91.8913 126.628C95.5155 116.439 93.8116 94.2984 91.9297 96.7447C90.1977 98.9982 78.5853 108.105 77.5919 106.13C76.0301 103.046 86.8091 84.0998 79.4789 68.1248C74.5196 57.3108 59.1346 50.9081 53.5556 39.0637C50.6279 32.8492 54.2866 16.5642 52.7952 17.647C49.6025 19.9606 28.371 33.3351 32.5686 58.8856C33.5851 65.0738 39.0219 69.786 37.6995 79.8442C36.5781 88.3708 27.9562 91.7565 23.7227 89.0464C12.808 82.0545 17.9069 72.1166 15.9444 73.2333C12.232 75.3511 4.25529 90.1446 2.77798 99.8527C1.30067 109.561 2.21983 123.08 6.49941 131.952C10.779 140.825 23.2119 154.907 25.5943 153.897C25.858 153.786 20.5735 143.959 21.2955 131.954C21.8831 122.189 27.7655 112.297 29.422 110.304C29.7907 109.86 29.8252 121.178 33.7579 127.288C40.6029 137.922 48.7627 125.482 45.5085 120.429C42.3977 115.598 41.1368 104.249 43.4603 92.9735C45.1014 84.9898 55.0393 71.8205 55.1789 72.9557C55.4631 75.2694 52.4905 81.9913 60.448 100.238C63.7508 107.812 67.5696 112.299 70.6727 119.992C74.9458 130.6 73.5735 151.589 73.4084 153.439Z" stroke="#2E2E2E" stroke-width="2.10001" stroke-linecap="round" stroke-linejoin="round"/>
</svg>
