<svg width="12" height="12" viewBox="0 0 12 12" fill="none" xmlns="http://www.w3.org/2000/svg">
<path d="M0.599999 5.25335L9.95158 5.25335L6.77579 1.28557C6.71905 1.21625 6.67389 1.13355 6.64291 1.04227C6.61194 0.950984 6.59576 0.85293 6.59532 0.753783C6.59489 0.654636 6.6102 0.556366 6.64037 0.464663C6.67054 0.372959 6.71497 0.289644 6.77109 0.219542C6.82721 0.14944 6.8939 0.0939426 6.96731 0.0562649C7.04071 0.0185862 7.11937 -0.000525475 7.19872 3.8147e-05C7.27808 0.000601768 7.35656 0.0208292 7.42962 0.0595474C7.50267 0.0982656 7.56886 0.154705 7.62434 0.2256L11.8243 5.47299C11.9368 5.61357 12 5.8042 12 6.00298C12 6.20175 11.9368 6.39239 11.8243 6.53297L7.62434 11.7804C7.56868 11.8501 7.50254 11.9054 7.42971 11.9431C7.35689 11.9808 7.27881 12.0001 7.19999 12C7.08134 12 6.96536 11.956 6.86671 11.8736C6.76807 11.7912 6.69118 11.6742 6.64578 11.5372C6.60038 11.4003 6.5885 11.2496 6.61164 11.1042C6.63478 10.9588 6.6919 10.8252 6.77579 10.7204L9.95158 6.75261L0.599999 6.75261C0.440869 6.75261 0.288258 6.67363 0.175735 6.53305C0.0632143 6.39246 0 6.20179 0 6.00298C0 5.80417 0.0632143 5.6135 0.175735 5.47291C0.288258 5.33233 0.440869 5.25335 0.599999 5.25335Z" fill="#D32A3B"/>
</svg>
