<svg width="298" height="189" viewBox="0 0 298 189" fill="none" xmlns="http://www.w3.org/2000/svg">
<path d="M108.151 86.3263V52.1838" stroke="black" stroke-width="2.09998" stroke-linecap="round"/>
<path d="M114.368 86.3265V48.6584" stroke="black" stroke-width="2.09998" stroke-linecap="round"/>
<path d="M179.031 86.3265V43.4802" stroke="black" stroke-width="2.09998" stroke-linecap="round"/>
<path d="M185.249 86.3263V46.3472" stroke="black" stroke-width="2.09998" stroke-linecap="round"/>
<path d="M144.144 86.3264V38.9033" stroke="black" stroke-width="2.09998" stroke-linecap="round"/>
<path d="M150.36 86.3263V37.0886" stroke="black" stroke-width="2.09998" stroke-linecap="round"/>
<path d="M67.7078 88.8333H229.919" stroke="black" stroke-width="3.49996" stroke-linecap="round"/>
<path d="M67.7078 109.057H227.969" stroke="black" stroke-width="3.49996" stroke-linecap="round"/>
<path d="M19.6147 88.8333H37.5997" stroke="black" stroke-width="2.79997" stroke-linecap="round"/>
<path d="M19.6147 109.057H37.5997" stroke="black" stroke-width="2.79997" stroke-linecap="round"/>
<path d="M15.3174 128.02H37.5998" stroke="black" stroke-width="2.79997" stroke-linecap="round"/>
<path d="M69.7371 128.02H81.3991L94.2434 109.057" stroke="black" stroke-width="1.39999" stroke-linecap="round"/>
<path d="M69.7173 124.109H78.9742L89.1692 109.057" stroke="black" stroke-width="0.559994" stroke-linecap="round"/>
<path d="M228.056 124.109H218.799L208.605 109.057" stroke="black" stroke-width="0.559994" stroke-linecap="round"/>
<path d="M227.969 128.02H216.305L203.461 109.057" stroke="black" stroke-width="1.39999" stroke-linecap="round"/>
<path d="M63.8467 71.0639C70.9442 53.5457 82.7818 38.607 97.8881 28.1046C112.994 17.6021 130.703 11.9992 148.813 11.9922C166.805 11.9988 184.403 17.5288 199.448 27.9031C214.493 38.2775 226.33 53.0449 233.505 70.3925" stroke="black" stroke-width="3.49996" stroke-linecap="round"/>
<path d="M81.9895 89.0846C86.9824 73.9095 96.3486 60.7474 108.786 51.4286C121.223 42.1098 136.113 37.0975 151.385 37.0886C165.617 37.0934 179.542 41.4452 191.466 49.6152C203.391 57.7851 212.801 69.4213 218.553 83.1092C218.612 83.2479 219.662 86.0411 219.713 86.1798" stroke="black" stroke-width="2.09998" stroke-linecap="round"/>
<path d="M76.3533 89.0847C87.0599 55.8081 116.502 31.8821 151.106 31.8821C183.389 31.8821 211.178 52.7051 223.455 82.517C223.518 82.6687 224.643 85.7419 224.705 85.8949" stroke="black" stroke-width="0.559994" stroke-linecap="round"/>
<path d="M71.6651 160.556L58.6224 28.9475H24.9935L12.2466 159.723" stroke="black" stroke-width="3.49996" stroke-linecap="round" stroke-linejoin="round"/>
<path d="M3.08203 185.76H79.4426V160.556H3.08203V185.76Z" stroke="black" stroke-width="3.49996" stroke-linecap="round" stroke-linejoin="round"/>
<path d="M49.4454 11.9923L41.5692 3.70972L34.0493 11.9923V27.8237H49.4454V11.9923Z" stroke="black" stroke-width="2.79997"/>
<path d="M34.0542 15.7666H49.9434" stroke="black" stroke-width="0.559994" stroke-linecap="round"/>
<path d="M24.6482 35.0149H59.3484" stroke="black" stroke-width="0.559994" stroke-linecap="round"/>
<path d="M3.73901 179.301H79.4425" stroke="black" stroke-width="0.559994" stroke-linecap="round"/>
<path d="M278.387 88.8333H260.402" stroke="black" stroke-width="2.79997" stroke-linecap="round"/>
<path d="M278.387 109.057H260.402" stroke="black" stroke-width="2.79997" stroke-linecap="round"/>
<path d="M282.684 128.02H260.402" stroke="black" stroke-width="2.79997" stroke-linecap="round"/>
<path d="M226.338 160.556L239.38 28.9475H273.011L285.757 159.723" stroke="black" stroke-width="3.49996" stroke-linecap="round" stroke-linejoin="round"/>
<path d="M218.558 185.76H294.918V160.556H218.558V185.76Z" stroke="black" stroke-width="3.49996" stroke-linecap="round" stroke-linejoin="round"/>
<path d="M248.556 11.9923L256.432 3.70972L263.952 11.9923V27.8237H248.556V11.9923Z" stroke="black" stroke-width="2.79997"/>
<path d="M263.947 15.7666H248.058" stroke="black" stroke-width="0.559994" stroke-linecap="round"/>
<path d="M273.352 35.0149H238.653" stroke="black" stroke-width="0.559994" stroke-linecap="round"/>
<path d="M294.264 179.301H218.558" stroke="black" stroke-width="0.559994" stroke-linecap="round"/>
</svg>
