<svg width="232" height="188" viewBox="0 0 232 188" fill="none" xmlns="http://www.w3.org/2000/svg">
<path d="M1.25781 84.4431H28.103V50.4517H1.25781V84.4431Z" stroke="black" stroke-width="1.39991" stroke-linejoin="round"/>
<path d="M4.51941 81.7213H24.8287V53.0127H4.51941V81.7213Z" stroke="black" stroke-width="0.559964" stroke-linejoin="round"/>
<path d="M5.98865 50.4517V40.8843C5.98965 39.4142 6.68771 38.0046 7.92947 36.965C9.17123 35.9255 10.8551 35.3412 12.6113 35.3403H16.7496C18.5057 35.3412 20.1896 35.9255 21.4314 36.965C22.6731 38.0046 23.3712 39.4142 23.3722 40.8843V50.4517H5.98865Z" stroke="black" stroke-width="1.39991" stroke-linejoin="round"/>
<path d="M9.68542 45.9123V41.1286C9.75603 40.3398 10.1955 39.6062 10.9084 39.0871C11.6213 38.568 12.55 38.3053 13.493 38.356H15.8728C16.8157 38.3053 17.7445 38.568 18.4574 39.0871C19.1703 39.6062 19.6097 40.3398 19.6803 41.1286V45.9123H9.68542Z" stroke="black" stroke-width="0.349978" stroke-linejoin="round"/>
<path d="M21.4312 84.4431V94.0558L17.8614 97.041H10.7344L7.16968 94.0558V84.4431H21.4312Z" stroke="black" stroke-width="1.39991" stroke-linejoin="round"/>
<path d="M178.73 25.4116V85.1296L190.635 106.505H205.504" stroke="black" stroke-width="1.04993" stroke-linejoin="round"/>
<path d="M164.124 85.2034H178.73" stroke="black" stroke-width="0.524966" stroke-linejoin="round"/>
<path d="M168.797 123.934H190.637V117.114H168.797V123.934Z" stroke="black" stroke-width="1.39991" stroke-linejoin="round"/>
<path d="M166.824 134.617H190.635V127.797H166.824V134.617Z" stroke="black" stroke-width="1.39991" stroke-linejoin="round"/>
<path d="M165.452 145.311H190.635V138.491H165.452V145.311Z" stroke="black" stroke-width="1.39991" stroke-linejoin="round"/>
<path d="M165.452 156.259H190.635V149.439H165.452V156.259Z" stroke="black" stroke-width="1.39991" stroke-linejoin="round"/>
<path d="M162.991 167.093H190.635V160.273H162.991V167.093Z" stroke="black" stroke-width="1.39991" stroke-linejoin="round"/>
<path d="M162.991 178.039H190.635V171.219H162.991V178.039Z" stroke="black" stroke-width="1.39991" stroke-linejoin="round"/>
<path d="M110.047 54.8206H93.9944C91.1604 55.0691 88.4137 55.7869 85.9141 56.9323C83.4146 58.0777 81.212 59.6277 79.4347 61.4923C73.6549 67.2416 73.9178 74.7472 73.9178 74.7472V138.219C73.9178 138.219 73.5178 147.755 66.748 153.882C58.5065 161.339 49.9959 160.937 49.9959 160.937H36.4664C33.4138 160.949 30.3939 160.412 27.6116 159.36C24.8294 158.309 22.35 156.768 20.3419 154.844C13.6376 148.588 14.0778 138.24 14.0778 138.24V97.7771" stroke="black" stroke-width="3.49978" stroke-linejoin="round"/>
<path d="M123.395 39.5059H110.047V70.1351H123.632" stroke="black" stroke-width="1.04993" stroke-linejoin="round"/>
<path d="M191.425 3.50963C190.268 4.47289 189.273 5.56446 188.469 6.75387L177.765 24.2419H152.231L125.69 28.2369V78.2421L152.219 85.4909H161.76L167.546 115.243L161.627 175.904C161.627 175.904 161.069 180.136 161.775 181.886C163.263 185.582 166.742 185.349 166.742 185.349H194.038C195.329 185.179 196.558 184.771 197.638 184.155C198.718 183.54 199.622 182.731 200.283 181.787C201.564 179.71 202.355 177.446 202.614 175.118C202.614 175.118 206.15 147.502 206.492 136.239C206.737 128.735 206.435 121.224 205.587 113.75C205.258 110.99 205.098 109.159 205.8 108.42C206.884 107.277 209.408 107.542 209.408 107.542H215.896C215.896 107.542 221.641 107.576 224.735 105.331C225.995 104.451 227.015 103.354 227.723 102.114C228.431 100.874 228.812 99.5209 228.839 98.1467V13.8457C228.842 11.2768 227.904 8.76887 226.151 6.66017C225.133 5.54746 223.859 4.61754 222.403 3.92577C220.947 3.23401 219.34 2.79454 217.677 2.63354L196.805 2.69989C196.805 2.69989 192.894 2.61775 191.425 3.50963Z" stroke="black" stroke-width="3.49978"/>
<path d="M203.254 5.07959V106.507" stroke="black" stroke-width="0.454971" stroke-linejoin="round"/>
<path d="M221.784 5.07959V106.507" stroke="black" stroke-width="0.454971" stroke-linejoin="round"/>
<path d="M151.977 25.4116V85.2033" stroke="black" stroke-width="0.454971" stroke-linejoin="round"/>
<path d="M112.764 38.9163V69.874" stroke="black" stroke-width="0.454971" stroke-linejoin="round"/>
<path d="M204.683 5.07959V106.507" stroke="black" stroke-width="0.244984" stroke-linejoin="round"/>
<path d="M130.753 28.3254V80.3429" stroke="black" stroke-width="0.244984" stroke-linejoin="round"/>
</svg>
