<svg width="12" height="12" viewBox="0 0 12 12" fill="none" xmlns="http://www.w3.org/2000/svg">
<g clip-path="url(#clip0_78_2541)">
<path d="M6 12C9.31371 12 12 9.31371 12 6C12 2.68629 9.31371 0 6 0C2.68629 0 0 2.68629 0 6C0 9.31371 2.68629 12 6 12Z" fill="#0A0A0A"/>
<path d="M6.25 6.63636H3.29545V6.01136H6.25C6.52273 6.01136 6.74811 5.96402 6.92614 5.86932C7.10417 5.77273 7.23674 5.64205 7.32386 5.47727C7.41098 5.31061 7.45455 5.12121 7.45455 4.90909C7.45455 4.69697 7.41098 4.50852 7.32386 4.34375C7.23674 4.17708 7.10417 4.0464 6.92614 3.9517C6.74811 3.85511 6.52273 3.80682 6.25 3.80682H4.92045V9H4.21591V3.18182H6.25C6.68182 3.18182 7.03788 3.26042 7.31818 3.41761C7.59848 3.57481 7.80682 3.78409 7.94318 4.04545C8.07955 4.30682 8.14773 4.5947 8.14773 4.90909C8.14773 5.22348 8.07955 5.51136 7.94318 5.77273C7.80682 6.03409 7.59848 6.24337 7.31818 6.40057C7.03788 6.55777 6.68182 6.63636 6.25 6.63636ZM6.20455 7.18182V7.80682H3.29545V7.18182H6.20455Z" fill="white"/>
</g>
<defs>
<clipPath id="clip0_78_2541">
<rect width="12" height="12" fill="white"/>
</clipPath>
</defs>
</svg>
