<svg width="297" height="286" viewBox="0 0 297 286" fill="none" xmlns="http://www.w3.org/2000/svg">
<path d="M85.6552 135.718C88.8836 131.544 118.004 126.17 118.004 126.17C118.004 126.17 134.626 124.335 142.509 129.266C150.392 134.197 151.517 148.786 148.909 153.683C146.302 158.581 126.884 158.649 126.884 158.649C126.884 158.649 119.489 175.62 113.111 173.44C106.732 171.26 86.6887 165.022 82.2445 158.92C77.6613 152.625 82.4268 139.889 85.6552 135.718Z" stroke="black" stroke-width="2.09977" stroke-linecap="round" stroke-linejoin="round"/>
<path d="M123.99 88.7751L115.9 104.411L123.979 111.713C123.979 111.713 132.605 119.844 141.604 111.713C150.603 103.581 154.739 96.3471 148.056 90.3096C141.374 84.272 147.151 78.311 134.78 78.311C122.409 78.311 123.99 88.7751 123.99 88.7751Z" stroke="black" stroke-width="2.09977" stroke-linecap="round" stroke-linejoin="round"/>
<path d="M158.017 115.317C158.017 115.317 169.113 105.032 180.492 115.317C191.87 125.603 210.709 130.033 206.08 140.615C201.451 151.197 199.35 148.267 187.376 148.267C175.403 148.267 176.916 130.102 167.266 130.102C157.615 130.102 158.017 115.317 158.017 115.317Z" stroke="black" stroke-width="2.09977" stroke-linecap="round" stroke-linejoin="round"/>
<path d="M158.015 159.202C170.303 158.357 189.977 158.741 182.407 172.172C174.836 185.603 174.623 177.174 173.477 186.678C172.331 196.183 177.47 198.324 167.266 200.223C157.062 202.122 154.517 197.739 148.058 188.968C141.599 180.197 141.458 176 148.058 172.172C154.658 168.344 145.729 160.048 158.015 159.202Z" stroke="black" stroke-width="2.09977" stroke-linecap="round" stroke-linejoin="round"/>
<path d="M182.407 78.3013C171.643 80.6363 165.077 78.8135 167.27 86.2892C169.463 93.765 173.132 105.642 182.407 98.6213C191.682 91.6007 194.886 94.9619 194.315 88.0709C193.744 81.1798 193.171 75.9605 182.407 78.3013Z" stroke="black" stroke-width="2.09977" stroke-linecap="round" stroke-linejoin="round"/>
<path d="M142.211 15.7227C143.597 20.9401 142.515 24.1207 146.951 23.0572C151.386 21.9937 158.432 20.218 154.267 15.7227C150.103 11.2275 152.096 9.67739 148.008 9.95405C143.92 10.2307 140.826 10.5113 142.211 15.7227Z" stroke="black" stroke-width="2.09977" stroke-linecap="round" stroke-linejoin="round"/>
<path d="M286.377 77.7088C291.622 75.1973 295.3 75.3543 293.057 71.7322C290.815 68.11 287.154 62.3924 283.374 67.1564C279.595 71.9205 277.437 70.5627 278.75 74.073C280.064 77.5833 281.134 80.2204 286.377 77.7088Z" stroke="black" stroke-width="2.09977" stroke-linecap="round" stroke-linejoin="round"/>
<path d="M16.9408 164.718C14.1184 160.009 14.2422 156.673 10.2626 158.741C6.28306 160.809 -0.0152127 164.171 5.30391 167.538C10.623 170.905 9.12499 172.871 12.9938 171.648C16.8627 170.426 19.7719 169.433 16.9408 164.718Z" stroke="black" stroke-width="2.09977" stroke-linecap="round" stroke-linejoin="round"/>
<path d="M37.0971 246.275C42.3424 243.763 46.0202 243.92 43.7775 240.3C41.5348 236.68 37.8744 230.958 34.0945 235.722C30.3147 240.486 28.1545 239.128 29.4702 242.639C30.7858 246.149 31.8518 248.782 37.0971 246.275Z" stroke="black" stroke-width="2.09977" stroke-linecap="round" stroke-linejoin="round"/>
<path d="M36.4328 84.3879C31.1875 81.8764 27.5097 82.0333 29.7524 78.4112C31.9951 74.7891 35.6555 69.0695 39.4353 73.8355C43.2152 78.6016 45.3732 77.2418 44.0597 80.7521C42.7462 84.2623 41.6781 86.8994 36.4328 84.3879Z" stroke="black" stroke-width="2.09977" stroke-linecap="round" stroke-linejoin="round"/>
<path d="M268.804 231.042C264.028 234.229 262.591 237.292 259.953 233.899C257.315 230.507 253.188 225.048 259.575 224.03C265.962 223.011 265.543 220.665 268.477 223.245C271.41 225.825 273.579 227.854 268.804 231.042Z" stroke="black" stroke-width="2.09977" stroke-linecap="round" stroke-linejoin="round"/>
<path d="M203.027 256.115C207.304 252.387 208.292 249.19 211.393 252.245C214.493 255.3 219.369 260.229 213.181 261.987C206.994 263.746 207.754 266.024 204.467 263.799C201.18 261.573 198.746 259.833 203.027 256.115Z" stroke="black" stroke-width="2.09977" stroke-linecap="round" stroke-linejoin="round"/>
<path d="M206.799 158.934C196.636 168.001 184.634 173.177 194.378 179.797C204.122 186.417 204.436 190.711 215.507 187.306C226.577 183.902 240.769 178.722 234.766 170.824C228.763 162.927 235.772 148.499 229.41 148.652C223.049 148.805 219.578 140.462 214.706 148.652C209.834 156.842 216.964 149.867 206.799 158.934Z" stroke="black" stroke-width="2.09977" stroke-linecap="round" stroke-linejoin="round"/>
<path d="M223.549 107.737C209.764 109.503 202.137 98.6978 204.443 107.737C206.749 116.777 188.538 114.052 204.443 117.723C220.348 121.394 219.206 119.106 223.549 124.086C227.891 129.066 233.698 132.882 235.387 125.809C237.076 118.735 237.33 105.964 223.549 107.737Z" stroke="black" stroke-width="2.09977" stroke-linecap="round" stroke-linejoin="round"/>
<path d="M105.362 188.501C118.271 184.761 114.522 177.709 123.36 179.797C132.198 181.885 130.722 180.119 133.901 188.501C137.079 196.883 150.184 190.63 143.169 200.666C136.154 210.703 137.07 215.092 127.416 212.076C117.761 209.06 124.059 205.289 115.475 200.666C106.89 196.044 92.4527 192.239 105.362 188.501Z" stroke="black" stroke-width="2.09977" stroke-linecap="round" stroke-linejoin="round"/>
<path d="M65.7616 166.768C76.6169 169.123 78.7988 161.284 77.8523 172.618C76.9057 183.951 86.5365 187.029 76.4519 188.511C66.3673 189.992 49.2376 198.836 48.0739 188.511C46.9102 178.186 47.707 180.448 42.4117 174.166C37.1165 167.883 34.585 174.609 41.4369 166.778C48.2888 158.947 54.0595 156.075 56.9383 161.863C59.8172 167.651 54.9106 164.42 65.7616 166.768Z" stroke="black" stroke-width="2.09977" stroke-linecap="round" stroke-linejoin="round"/>
<path d="M74.0832 71.8085C84.5044 79.7571 81.5799 73.8432 91.4105 77.742C97.1116 79.8937 101.831 83.7377 104.789 88.6398C104.789 88.6398 102.214 92.7799 95.7657 104.092C89.3176 115.403 107.142 112.584 85.6572 116.897C64.1723 121.209 78.7098 129.099 63.749 121.198C48.7881 113.296 41.0808 110.881 47.9002 96.2136C54.7195 81.5466 55.0299 75.1265 63.749 75.3737C72.468 75.6209 63.6513 63.8599 74.0832 71.8085Z" stroke="black" stroke-width="2.09977" stroke-linecap="round" stroke-linejoin="round"/>
<path d="M138.651 51.5044C143.497 59.6885 138.529 62.5493 145.679 65.8986C152.828 69.248 149.945 63.5774 156.378 68.6456C162.811 73.7139 159.013 79.2157 166.421 72.7034C173.829 66.191 167.166 78.4858 172.298 65.208C177.431 51.9302 188.939 49.5108 172.298 45.3648C155.657 41.2188 159.363 41.1384 151.439 42.9043C146.972 43.8368 142.67 45.3203 138.651 47.3132C138.651 47.3132 133.803 43.3203 138.651 51.5044Z" stroke="black" stroke-width="2.09977" stroke-linecap="round" stroke-linejoin="round"/>
<path d="M84.0877 193.436C78.9075 198.182 75.8832 196.654 75.0929 203.906C74.3027 211.158 65.2363 211.572 75.0929 217.317C84.9496 223.062 88.7338 226.873 96.732 226.484C104.73 226.096 100.095 229.471 104.789 219.894C109.483 210.316 109.32 209.651 104.789 204.773C100.258 199.895 89.6869 200.877 88.165 198.616C86.643 196.356 89.27 188.69 84.0877 193.436Z" stroke="black" stroke-width="2.09977" stroke-linecap="round" stroke-linejoin="round"/>
<path d="M136.38 222.024C149.769 217.629 142.459 215.432 148.692 214.146C154.925 212.861 153.128 205.001 158.395 213.923C163.662 222.845 164.615 223.09 164.039 227.836C163.464 232.583 174.243 235.096 158.985 235.096C143.727 235.096 149.626 226.378 142.021 231.719C134.415 237.06 122.989 226.42 136.38 222.024Z" stroke="black" stroke-width="2.09977" stroke-linecap="round" stroke-linejoin="round"/>
<path d="M207.567 73.2586C207.674 81.2563 202.682 84.639 207.029 88.112C211.375 91.585 214.291 96.7788 219.341 92.313C224.391 87.8471 229.69 86.9034 229.356 82.5121C229.022 78.1208 228.978 77.2575 224.069 73.2586C219.161 69.2598 214.473 75.8781 210.947 73.2586C207.422 70.6391 207.461 65.2609 207.567 73.2586Z" stroke="black" stroke-width="2.09977" stroke-linecap="round" stroke-linejoin="round"/>
<path d="M115.197 250.179C109.014 255.903 102.841 255.102 103.195 260.339C103.549 265.576 101.55 271.107 108.623 271.178C115.696 271.249 120.175 273.966 123.373 270.648C126.571 267.33 127.218 266.691 126.875 260.726C126.532 254.761 118.039 256.446 117.596 252.34C117.153 248.233 121.38 244.456 115.197 250.179Z" stroke="black" stroke-width="2.09977" stroke-linecap="round" stroke-linejoin="round"/>
<path d="M54.9801 204.251C47.3683 208.335 41.6367 206.115 40.4774 211.256C39.318 216.397 35.8031 221.263 42.6093 222.994C49.4156 224.724 52.9675 228.39 57.0079 225.937C61.0482 223.484 61.8559 223.013 63.2302 217.172C64.6044 211.331 55.9223 210.972 56.6692 206.902C57.416 202.833 62.5919 200.164 54.9801 204.251Z" stroke="black" stroke-width="2.09977" stroke-linecap="round" stroke-linejoin="round"/>
<path d="M115.9 55.9465C119.83 59.8375 136.864 59.4097 131.473 64.8311C126.083 70.2525 118.195 71.4514 116.131 76.0683C114.066 80.6852 109.279 82.9966 104.789 76.0683C100.299 69.14 95.0907 69.1851 97.2271 64.8311C99.3513 61.1421 101.885 57.6577 104.789 54.4318C104.789 54.4318 111.971 52.0615 115.9 55.9465Z" stroke="black" stroke-width="2.09977" stroke-linecap="round" stroke-linejoin="round"/>
<path d="M142.033 274.412C143.963 271.684 140.974 262.611 145.392 264.642C149.81 266.673 151.851 270.713 155.216 271.086C158.581 271.459 160.861 273.66 157.02 277.169C153.18 280.677 154.042 283.469 150.841 283.014C148.081 282.461 145.389 281.656 142.808 280.612C142.808 280.612 140.103 277.139 142.033 274.412Z" stroke="black" stroke-width="2.09977" stroke-linecap="round" stroke-linejoin="round"/>
<path d="M40.8314 124.563C48.6255 127.683 51.8604 120.984 59.1834 129.694C66.5064 138.404 69.4004 142.489 59.1834 145.034C48.9663 147.579 49.774 143.213 37.2773 145.034C24.7806 146.855 24.1228 145.352 25.5058 134.326C26.8887 123.301 33.0372 121.443 40.8314 124.563Z" stroke="black" stroke-width="2.09977" stroke-linecap="round" stroke-linejoin="round"/>
<path d="M186.193 196.159C182.619 203.48 175.021 202.548 177.826 215.73C180.631 228.912 172.181 232.85 184.951 230.885C197.721 228.921 194.15 235.498 202.194 228.727C210.238 221.956 215.557 227.409 212.415 215.724C209.274 204.039 214.654 199.309 205.963 198.93C197.272 198.551 189.769 188.837 186.193 196.159Z" stroke="black" stroke-width="2.09977" stroke-linecap="round" stroke-linejoin="round"/>
<path d="M252.841 119.583C248.59 130.481 243.529 116.783 244.063 129.549C244.597 142.314 231.143 142.766 246.781 146.352C262.419 149.939 280.446 167.124 282.927 153.808C285.409 140.493 281.297 135.661 281.887 129.543C282.478 123.425 289.558 118.555 274.79 119.577C260.022 120.599 257.094 108.685 252.841 119.583Z" stroke="black" stroke-width="2.09977" stroke-linecap="round" stroke-linejoin="round"/>
<path d="M236.015 190.836C242.35 190.989 242.706 182.006 248.012 190.836C253.318 199.666 256.946 196.118 253.789 203.955C250.633 211.792 253.746 216.442 245.824 214.711C237.901 212.981 245.769 212.431 236.015 208.258C226.26 204.084 219.515 204.934 223.952 199.232C228.39 193.53 229.68 190.683 236.015 190.836Z" stroke="black" stroke-width="2.09977" stroke-linecap="round" stroke-linejoin="round"/>
<path d="M87.3247 39.0213C93.8726 44.0738 93.7706 48.3277 94.7845 51.1865C95.7984 54.0454 92.1922 53.6392 90.3251 58.731C88.458 63.8227 85.2318 68.1257 80.2709 63.0987C75.31 58.0717 79.752 53.4607 75.9287 51.1865C72.1055 48.9124 69.8172 50.4311 71.8623 46.2184C73.9075 42.0057 87.329 39.0173 87.329 39.0173" stroke="black" stroke-width="2.09977" stroke-linecap="round" stroke-linejoin="round"/>
<path d="M70.5314 240.735C83.94 236.915 81.9578 231.598 89.3893 235.273C96.8209 238.948 98.0497 238.1 96.9729 243.135C95.896 248.17 98.2126 247.491 92.1357 251.166C86.0589 254.841 85.1167 256.009 78.2409 256.564C71.3651 257.119 67.5289 260.62 67.0686 253.189C66.6083 245.758 57.1208 244.556 70.5314 240.735Z" stroke="black" stroke-width="2.09977" stroke-linecap="round" stroke-linejoin="round"/>
<path d="M218.898 232.449C230.869 225.778 227.511 221.069 235.711 222.992C243.911 224.915 244.873 223.824 245.187 228.945C245.502 234.066 247.576 232.895 242.665 237.8C237.754 242.705 237.167 244.045 230.637 246.102C224.106 248.158 221.345 252.398 218.894 245.291C216.442 238.185 206.924 239.113 218.898 232.449Z" stroke="black" stroke-width="2.09977" stroke-linecap="round" stroke-linejoin="round"/>
<path d="M111.202 33.2211C120.716 30.5114 119.309 26.746 124.582 29.3459C129.856 31.9457 130.727 31.3512 129.962 34.9243C129.198 38.4973 130.842 38.0146 126.53 40.6145C122.218 43.2143 121.549 44.0502 116.665 44.4446C111.78 44.839 109.066 47.323 108.738 42.0508C108.41 36.7785 101.688 35.9328 111.202 33.2211Z" stroke="black" stroke-width="2.09977" stroke-linecap="round" stroke-linejoin="round"/>
<path d="M177.459 242.786C187.307 244.226 187.923 240.284 191.338 244.748C194.753 249.212 195.83 249.033 193.373 251.916C190.915 254.798 192.624 255.034 187.476 255.612C182.328 256.191 181.319 256.66 176.757 255.024C172.196 253.387 168.538 254.51 170.865 249.667C173.193 244.825 167.611 241.344 177.459 242.786Z" stroke="black" stroke-width="2.09977" stroke-linecap="round" stroke-linejoin="round"/>
<path d="M232.085 51.7652C241.933 53.2054 242.55 49.2635 245.965 53.7273C249.38 58.1912 250.459 58.0146 247.999 60.8951C245.539 63.7755 247.25 64.0149 242.102 64.5937C236.955 65.1725 235.945 65.6415 231.384 64.0051C226.822 62.3686 223.164 63.491 225.494 58.6464C227.823 53.8019 222.237 50.323 232.085 51.7652Z" stroke="black" stroke-width="2.09977" stroke-linecap="round" stroke-linejoin="round"/>
<path d="M24.7763 93.4433C30.788 100.637 34.2508 98.174 33.2977 103.539C32.3446 108.903 33.2651 109.443 29.2834 109.988C25.3017 110.534 26.3568 111.772 22.1949 108.974C18.0329 106.176 16.9452 105.885 14.8979 101.861C12.8506 97.8365 9.35299 96.3531 14.7394 94.3086C20.1258 92.264 18.7646 86.2501 24.7763 93.4433Z" stroke="black" stroke-width="2.09977" stroke-linecap="round" stroke-linejoin="round"/>
<path d="M149.797 256.432C141.065 252.075 139.011 255.599 137.466 250.35C135.92 245.101 134.834 244.946 138.225 242.982C141.617 241.018 140.095 240.274 145.158 241.298C150.221 242.323 151.345 242.187 155.032 245.115C158.718 248.042 162.576 248.101 158.581 251.951C154.587 255.801 158.532 260.794 149.797 256.432Z" stroke="black" stroke-width="2.09977" stroke-linecap="round" stroke-linejoin="round"/>
<path d="M224.89 3.22386C234.738 4.66407 235.355 0.722126 238.77 5.186C242.185 9.64988 243.262 9.4733 240.804 12.3557C238.346 15.2381 240.055 15.4735 234.907 16.0523C229.76 16.6312 228.75 17.1001 224.189 15.4637C219.627 13.8273 215.967 14.9496 218.296 10.107C220.626 5.26448 215.042 1.79149 224.89 3.22386Z" stroke="black" stroke-width="2.09977" stroke-linecap="round" stroke-linejoin="round"/>
<path d="M189.643 36.7648C193.182 45.4924 197.598 40.2594 193.939 49.1263C190.281 57.9933 180.565 64.9078 189.452 64.1407C198.338 63.3735 186.347 67.6725 197.984 60.7677C209.621 53.863 215.309 58.5839 212.964 51.995C210.62 45.4061 214.781 44.3564 209.399 41.7349C204.017 39.1135 209.968 36.9061 200.989 35.6837C192.009 34.4613 186.104 28.0353 189.643 36.7648Z" stroke="black" stroke-width="2.09977" stroke-linecap="round" stroke-linejoin="round"/>
<path d="M251.006 99.8555C251.006 99.8555 263.381 103.886 256.434 94.9502C249.486 86.0146 254.71 77.697 245.617 81.7351C236.525 85.7732 244.371 82.9379 238.277 88.3691C232.183 93.8004 228.594 96.1294 236.653 98.0111C241.342 99.1282 246.159 99.7471 251.006 99.8555Z" stroke="black" stroke-width="2.09977" stroke-linecap="round" stroke-linejoin="round"/>
</svg>
