<svg width="237" height="263" viewBox="0 0 237 263" fill="none" xmlns="http://www.w3.org/2000/svg">
<path d="M64.7869 164.353L101.641 216.627" stroke="black" stroke-width="3.14955" stroke-linecap="round" stroke-linejoin="round"/>
<path d="M87.5176 167.669L124.525 202.745" stroke="black" stroke-width="3.14955" stroke-linecap="round" stroke-linejoin="round"/>
<path d="M128.094 202.745C136.293 202.748 144.155 205.756 149.953 211.108C155.75 216.46 159.009 223.718 159.013 231.287C159.01 238.857 155.751 246.115 149.953 251.467C144.156 256.82 136.293 259.828 128.094 259.831C119.894 259.829 112.031 256.821 106.233 251.469C100.434 246.117 97.1745 238.859 97.1704 231.289C97.174 223.719 100.433 216.46 106.232 211.107C112.031 205.755 119.894 202.747 128.094 202.745Z" stroke="black" stroke-width="3.14955" stroke-linecap="round" stroke-linejoin="round"/>
<path d="M127.527 211.645C133.223 211.647 138.686 213.737 142.714 217.456C146.742 221.174 149.007 226.217 149.009 231.476C149.008 236.736 146.744 241.78 142.716 245.499C138.687 249.218 133.224 251.309 127.527 251.311C121.83 251.309 116.367 249.218 112.339 245.499C108.311 241.779 106.047 236.735 106.045 231.476C106.048 226.217 108.312 221.175 112.34 217.456C116.368 213.738 121.83 211.647 127.527 211.645Z" stroke="black" stroke-width="0.594916" stroke-linecap="round" stroke-linejoin="round"/>
<path d="M127.527 221.561C130.375 221.562 133.106 222.607 135.12 224.466C137.134 226.325 138.266 228.847 138.267 231.476C138.266 234.105 137.134 236.627 135.12 238.486C133.106 240.345 130.375 241.39 127.527 241.392C124.679 241.39 121.948 240.345 119.934 238.486C117.92 236.627 116.788 234.105 116.786 231.476C116.787 228.847 117.919 226.325 119.933 224.466C121.947 222.607 124.679 221.562 127.527 221.561Z" stroke="black" stroke-width="2.0997" stroke-linecap="round" stroke-linejoin="round"/>
<path d="M155.403 214.095L232.663 190.489" stroke="black" stroke-width="3.14955" stroke-linecap="round" stroke-linejoin="round"/>
<path d="M159.013 238.534L232.663 220.169" stroke="black" stroke-width="3.14955" stroke-linecap="round" stroke-linejoin="round"/>
<path d="M24.8066 145.659V138.07C24.8759 135.324 25.9205 132.675 27.7797 130.53C28.903 129.397 30.274 128.496 31.8024 127.887C33.3307 127.279 34.9815 126.977 36.6456 127.001H113.458C113.458 127.001 118.408 127.394 121.204 129.976C122.972 131.891 123.982 134.304 124.067 136.82V145.455" stroke="black" stroke-width="2.44965" stroke-linecap="round" stroke-linejoin="round"/>
<path d="M31.5217 148.698V142.04C31.5788 139.638 32.4738 137.316 34.0738 135.421C35.0261 134.43 36.1991 133.64 37.5125 133.105C38.8259 132.57 40.2489 132.303 41.6842 132.323H107.624C110.078 132.546 112.399 133.457 114.275 134.933C115.799 136.626 116.665 138.742 116.734 140.943V148.519" stroke="black" stroke-width="0.594916" stroke-linecap="round" stroke-linejoin="round"/>
<path d="M101.642 148.698C100.843 153.957 98.0143 158.773 93.675 162.259C89.3357 165.745 83.7783 167.666 78.0262 167.669C72.2743 167.666 66.7173 165.744 62.3783 162.258C58.0393 158.773 55.2104 153.957 54.4124 148.698H101.642Z" stroke="black" stroke-width="3.14955" stroke-linecap="round" stroke-linejoin="round"/>
<path d="M141.408 20.5437C141.407 17.3262 140.022 14.2408 137.557 11.9657C135.093 9.6905 131.75 8.41165 128.265 8.41016H22.331C18.8456 8.41165 15.5033 9.69045 13.0386 11.9656C10.5739 14.2407 9.1883 17.326 9.18628 20.5437V136.565C9.1883 139.783 10.5739 142.868 13.0386 145.143C15.5033 147.418 18.8456 148.697 22.331 148.698H128.267C131.752 148.696 135.094 147.417 137.558 145.142C140.022 142.866 141.407 139.781 141.408 136.563V20.5437Z" stroke="black" stroke-width="3.4995" stroke-linecap="round" stroke-linejoin="round"/>
<path d="M149.575 19.396C149.573 14.439 147.439 9.68576 143.642 6.1808C139.845 2.67584 134.696 0.705968 129.327 0.704102H21.0114C15.642 0.705968 10.4931 2.67584 6.69617 6.1808C2.89929 9.68576 0.765121 14.439 0.762695 19.396V138.369C0.765121 143.326 2.89924 148.079 6.69608 151.584C10.4929 155.09 15.6418 157.06 21.0114 157.062H129.327C134.696 157.06 139.845 155.09 143.642 151.584C147.439 148.079 149.573 143.326 149.575 138.369V19.396Z" stroke="black" stroke-width="0.699901" stroke-linecap="round" stroke-linejoin="round"/>
<path d="M73.8909 22.1506C87.4013 22.1574 100.356 27.1151 109.91 35.9346C119.463 44.7541 124.833 56.7139 124.841 69.1866C124.833 81.6592 119.463 93.6191 109.91 102.439C100.356 111.258 87.4013 116.216 73.8909 116.223C60.3804 116.216 47.4254 111.258 37.872 102.439C28.3187 93.6191 22.9484 81.6592 22.9412 69.1866C22.9484 56.7139 28.3187 44.7541 37.872 35.9346C47.4254 27.1151 60.3804 22.1574 73.8909 22.1506Z" stroke="black" stroke-width="3.4995" stroke-linecap="round" stroke-linejoin="round"/>
<path d="M74.3697 27.9609C86.0868 27.9662 97.3224 32.2655 105.608 39.9143C113.893 47.5631 118.55 57.9356 118.556 68.7526C118.55 79.5697 113.893 89.9422 105.608 97.591C97.3224 105.24 86.0868 109.539 74.3697 109.544C62.6526 109.539 51.4171 105.24 43.1318 97.591C34.8466 89.9422 30.1895 79.5697 30.1838 68.7526C30.1895 57.9356 34.8466 47.5631 43.1318 39.9143C51.4171 32.2655 62.6526 27.9662 74.3697 27.9609Z" stroke="black" stroke-width="0.664906" stroke-linecap="round" stroke-linejoin="round"/>
<path d="M74.4124 38.9609C83.1203 38.9647 91.4705 42.1598 97.628 47.8443C103.785 53.5288 107.246 61.2375 107.251 69.2766C107.246 77.3157 103.785 85.0244 97.628 90.7089C91.4705 96.3934 83.1203 99.5885 74.4124 99.5923C65.7044 99.5885 57.3542 96.3934 51.1968 90.7089C45.0393 85.0244 41.5783 77.3157 41.5742 69.2766C41.5783 61.2375 45.0393 53.5288 51.1968 47.8443C57.3542 42.1598 65.7044 38.9647 74.4124 38.9609Z" stroke="black" stroke-width="2.7996" stroke-linecap="round" stroke-linejoin="round"/>
<path d="M52.9509 70.454C52.9929 65.2597 55.2667 60.2932 59.2728 56.6458C63.279 52.9983 68.6897 50.9683 74.3162 51.0016" stroke="black" stroke-width="2.7996" stroke-linecap="round" stroke-linejoin="round"/>
<path d="M124.067 17.7793C125.529 17.78 126.93 18.3163 127.963 19.2704C128.997 20.2244 129.578 21.5182 129.578 22.8674C129.578 24.2166 128.997 25.5103 127.963 26.4643C126.93 27.4184 125.529 27.9547 124.067 27.9554C122.606 27.9547 121.204 27.4184 120.171 26.4643C119.137 25.5103 118.556 24.2166 118.556 22.8674C118.556 21.5182 119.137 20.2244 120.171 19.2704C121.204 18.3163 122.606 17.78 124.067 17.7793Z" stroke="black" stroke-width="2.7996" stroke-linecap="round" stroke-linejoin="round"/>
</svg>
