<svg width="205" height="287" viewBox="0 0 205 287" fill="none" xmlns="http://www.w3.org/2000/svg">
<path d="M81.9472 132.786C102.679 132.795 122.559 139.959 137.218 152.705C151.878 165.451 160.118 182.735 160.128 200.761C160.118 218.786 151.877 236.071 137.218 248.816C122.558 261.562 102.679 268.726 81.9472 268.734C61.2159 268.726 41.3366 261.561 26.6774 248.816C12.0182 236.07 3.7783 218.786 3.76831 200.761C3.7779 182.735 12.0176 165.451 26.6769 152.705C41.3361 139.959 61.2157 132.795 81.9472 132.786Z" stroke="#2E2E2E" stroke-width="3.5" stroke-linecap="round"/>
<path d="M81.8718 139.295C100.597 139.303 118.553 145.774 131.794 157.287C145.035 168.799 152.478 184.411 152.487 200.692C152.48 216.975 145.038 232.589 131.797 244.103C118.556 255.617 100.599 262.089 81.8718 262.097C63.1452 262.09 45.1882 255.618 31.9471 244.104C18.7059 232.591 11.264 216.977 11.2568 200.695C11.2648 184.413 18.7071 168.801 31.9481 157.288C45.1892 145.774 63.1457 139.303 81.8718 139.295Z" stroke="#2E2E2E" stroke-width="2.1" stroke-linecap="round"/>
<path d="M81.9199 146.888C98.318 146.894 114.042 152.561 125.637 162.643C137.233 172.724 143.75 186.396 143.758 200.653C143.75 214.91 137.232 228.582 125.637 238.663C114.042 248.744 98.3177 254.411 81.9199 254.417C65.5222 254.411 49.7981 248.744 38.203 238.663C26.6079 228.582 20.0903 214.91 20.0823 200.653C20.0899 186.396 26.6073 172.724 38.2025 162.643C49.7977 152.561 65.5219 146.894 81.9199 146.888Z" stroke="#2E2E2E" stroke-width="0.699999" stroke-linecap="round"/>
<path d="M81.7889 149.127C97.5372 149.135 112.638 154.578 123.774 164.26C134.909 173.943 141.169 187.072 141.179 200.765C141.169 214.457 134.909 227.587 123.774 237.269C112.638 246.951 97.5372 252.394 81.7889 252.402C66.0406 252.394 50.9399 246.951 39.8042 237.269C28.6684 227.587 22.4084 214.457 22.3992 200.765C22.4084 187.072 28.6684 173.943 39.8042 164.26C50.9399 154.578 66.0406 149.135 81.7889 149.127Z" stroke="#2E2E2E" stroke-width="0.699999" stroke-linecap="round"/>
<path d="M81.7843 150.737C107.409 150.737 128.223 173.157 128.223 200.771C128.223 228.385 107.414 250.805 81.7843 250.805C56.1548 250.805 35.3442 228.386 35.3442 200.771C35.3442 173.156 56.1532 150.737 81.7843 150.737Z" stroke="#2E2E2E" stroke-width="1.75" stroke-linecap="round"/>
<path d="M47.8628 138.757V82.9482" stroke="#2E2E2E" stroke-width="3.5"/>
<path d="M116.942 140.512V82.9482" stroke="#2E2E2E" stroke-width="3.5"/>
<path d="M37.5044 82.9482H128.217V69.5671H37.5044V82.9482Z" stroke="#2E2E2E" stroke-width="2.45"/>
<path d="M47.8628 68.6458H116.648V21.1777H47.8628V68.6458Z" stroke="#2E2E2E" stroke-width="3.5"/>
<path d="M201.231 10.8869C201.231 8.86871 200.308 6.93333 198.667 5.50622C197.025 4.07911 194.8 3.27706 192.478 3.27637C190.157 3.27741 187.931 4.07955 186.29 5.50658C184.649 6.93361 183.726 8.86882 183.725 10.8869V78.9365C183.726 80.9549 184.648 82.8904 186.29 84.3177C187.931 85.745 190.157 86.5473 192.478 86.5484C194.8 86.5473 197.026 85.745 198.667 84.3177C200.308 82.8904 201.231 80.9549 201.231 78.9365V10.8869Z" stroke="#2E2E2E" stroke-width="3.5"/>
<path d="M58.2756 124.215H109.155V98.4773H58.2756V124.215Z" stroke="#2E2E2E" stroke-width="1.75"/>
<path d="M62.8145 120.175H104.779V102.175H62.8145V120.175Z" stroke="#2E2E2E" stroke-width="0.664999"/>
<path d="M91.6802 152.075V248.807" stroke="#2E2E2E" stroke-width="1.05"/>
<path d="M70.2532 152.075V248.807" stroke="#2E2E2E" stroke-width="1.05"/>
<path d="M17.2079 161.485L7.48398 141.926C6.55123 140.004 6.08083 137.937 6.10174 135.851C6.10374 132.465 7.65203 129.217 10.4064 126.823C13.1608 124.428 16.8958 123.082 20.7909 123.081C25.5662 123.081 29.5049 125.288 32.699 128.139L47.8705 140.739" stroke="#2E2E2E" stroke-width="2.8"/>
<path d="M21.6711 130.447C23.4731 130.447 25.201 131.07 26.4751 132.178C27.7493 133.286 28.4655 134.788 28.4663 136.355C28.4655 137.921 27.7493 139.424 26.4751 140.532C25.201 141.639 23.4731 142.262 21.6711 142.263C19.8692 142.262 18.1413 141.639 16.8671 140.532C15.5929 139.424 14.8768 137.921 14.876 136.355C14.8768 134.788 15.5929 133.286 16.8671 132.178C18.1413 131.07 19.8692 130.447 21.6711 130.447Z" stroke="#2E2E2E" stroke-width="1.4"/>
<path d="M21.7299 128.386C24.1437 128.387 26.4584 129.221 28.1653 130.706C29.8721 132.19 30.8316 134.202 30.8328 136.301C30.8316 138.4 29.8721 140.412 28.1653 141.896C26.4584 143.38 24.1437 144.214 21.7299 144.215C19.316 144.214 17.0013 143.38 15.2945 141.896C13.5876 140.412 12.6282 138.4 12.627 136.301C12.6282 134.202 13.5876 132.19 15.2945 130.706C17.0013 129.221 19.316 128.387 21.7299 128.386Z" stroke="#2E2E2E" stroke-width="0.489999"/>
<path d="M21.6711 265.745C23.4731 265.746 25.201 266.368 26.4751 267.476C27.7493 268.584 28.4655 270.086 28.4663 271.653C28.4655 273.22 27.7493 274.722 26.4751 275.83C25.201 276.938 23.4731 277.56 21.6711 277.561C19.8692 277.56 18.1413 276.938 16.8671 275.83C15.5929 274.722 14.8768 273.22 14.876 271.653C14.8768 270.086 15.5929 268.584 16.8671 267.476C18.1413 266.368 19.8692 265.746 21.6711 265.745Z" stroke="#2E2E2E" stroke-width="1.4"/>
<path d="M21.7299 263.686C24.1437 263.687 26.4584 264.521 28.1653 266.005C29.8721 267.489 30.8316 269.502 30.8328 271.6C30.8316 273.699 29.8721 275.712 28.1653 277.196C26.4584 278.68 24.1437 279.514 21.7299 279.515C19.316 279.514 17.0013 278.68 15.2945 277.196C13.5876 275.712 12.6282 273.699 12.627 271.6C12.6282 269.502 13.5876 267.489 15.2945 266.005C17.0013 264.521 19.316 263.687 21.7299 263.686Z" stroke="#2E2E2E" stroke-width="0.489999"/>
<path d="M147.393 162.983L157.863 141.925C158.797 140.003 159.268 137.936 159.247 135.85C159.245 132.462 157.696 129.214 154.94 126.82C152.185 124.425 148.448 123.08 144.552 123.08C139.777 123.08 135.838 125.287 132.644 128.137L117.472 140.737" stroke="#2E2E2E" stroke-width="2.8"/>
<path d="M143.678 130.447C141.876 130.447 140.148 131.07 138.874 132.178C137.6 133.286 136.883 134.788 136.883 136.355C136.883 137.921 137.6 139.424 138.874 140.532C140.148 141.639 141.876 142.262 143.678 142.263C145.48 142.262 147.208 141.64 148.483 140.532C149.757 139.424 150.474 137.922 150.474 136.355C150.474 134.788 149.757 133.285 148.483 132.177C147.208 131.069 145.48 130.447 143.678 130.447Z" stroke="#2E2E2E" stroke-width="1.4"/>
<path d="M143.619 128.386C141.205 128.387 138.89 129.221 137.183 130.705C135.475 132.189 134.516 134.202 134.515 136.301C134.516 138.4 135.475 140.413 137.183 141.897C138.89 143.381 141.205 144.215 143.619 144.215C146.033 144.215 148.348 143.381 150.055 141.897C151.762 140.412 152.721 138.4 152.722 136.301C152.721 134.202 151.762 132.189 150.055 130.705C148.348 129.221 146.033 128.387 143.619 128.386Z" stroke="#2E2E2E" stroke-width="0.489999"/>
<path d="M81.9473 284.71H19.7795C16.1523 284.708 12.6743 283.455 10.1096 281.225C7.54491 278.995 6.1034 275.97 6.10181 272.817C6.29458 269.707 7.70275 266.748 10.0933 264.429L24.1403 247.621" stroke="#2E2E2E" stroke-width="2.45"/>
<path d="M142.225 265.745C140.423 265.746 138.695 266.368 137.421 267.476C136.147 268.584 135.43 270.086 135.43 271.653C135.43 273.22 136.147 274.722 137.421 275.83C138.695 276.938 140.423 277.56 142.225 277.561C144.027 277.561 145.755 276.938 147.03 275.83C148.304 274.722 149.021 273.22 149.021 271.653C149.021 270.086 148.304 268.584 147.03 267.476C145.755 266.368 144.027 265.745 142.225 265.745Z" stroke="#2E2E2E" stroke-width="1.4"/>
<path d="M142.166 263.686C139.752 263.686 137.437 264.521 135.73 266.005C134.022 267.489 133.063 269.501 133.062 271.6C133.063 273.699 134.022 275.712 135.73 277.196C137.437 278.68 139.752 279.514 142.166 279.515C144.58 279.514 146.894 278.68 148.601 277.196C150.308 275.712 151.268 273.699 151.269 271.6C151.268 269.502 150.308 267.489 148.601 266.005C146.894 264.521 144.58 263.687 142.166 263.686Z" stroke="#2E2E2E" stroke-width="0.489999"/>
<path d="M81.9473 284.71H144.107C147.735 284.709 151.213 283.455 153.778 281.225C156.343 278.995 157.785 275.971 157.787 272.817C157.594 269.707 156.185 266.748 153.794 264.429L139.754 247.621" stroke="#2E2E2E" stroke-width="2.45"/>
<path d="M165.141 53.9541H183.724V34.0227H165.141V53.9541Z" stroke="#2E2E2E" stroke-width="1.75"/>
<path d="M116.645 46.6122H165.141V41.3699H116.645V46.6122Z" stroke="#2E2E2E" stroke-width="1.75"/>
<path d="M49.9099 29.4895H113.532" stroke="#2E2E2E" stroke-width="0.664999"/>
<path d="M49.9099 60.2554H113.532" stroke="#2E2E2E" stroke-width="0.664999"/>
<path d="M54.2239 19.871H111.597V15.4229H54.2239V19.871Z" stroke="#2E2E2E" stroke-width="1.4"/>
</svg>
